# xmcd
#
# Track frame offsets:
#	150
#	10805
#	31225
#	64951
#	88715
#	103397
#	123596
#	135008
#	158197
#	173851
#	190978
#	215568
#	228619
#	247302
#
# Disc length: 3424 seconds
#
# Revision: 1
# Processed by: cddbd v1.5PL3 Copyright (c) Steve Scherf et al.
# Submitted via: EasyCDDAExtractor 6.5.2.1
#
DISCID=c80d5e0e
DTITLE=Jean Paul Rena and Terrawheel - Introducing...
DYEAR=2004
DGENRE=Blues
TTITLE0=Enough is Enough
TTITLE1=Low Down
TTITLE2=Jail Cell Wall
TTITLE3=Mean Mistreater
TTITLE4=Catfish
TTITLE5=If I was You
TTITLE6=My Eyes Keep Me In Trouble
TTITLE7=Meat On The Bone
TTITLE8=Doin' All The Things
TTITLE9=Money
TTITLE10=Remember Me
TTITLE11=Everything's Gonna Be Alright
TTITLE12=Some Changes
TTITLE13=Twister
EXTD=
EXTT0=
EXTT1=
EXTT2=
EXTT3=
EXTT4=
EXTT5=
EXTT6=
EXTT7=
EXTT8=
EXTT9=
EXTT10=
EXTT11=
EXTT12=
EXTT13=
PLAYORDER=
